<svg height="180" viewBox="0 0 185 180" width="185" xmlns="http://www.w3.org/2000/svg" xmlns:xlink="http://www.w3.org/1999/xlink"><filter id="a"><feColorMatrix in="SourceGraphic" type="matrix" values="0 0 0 0 0.022979 0 0 0 0 0.020378 0 0 0 0 0.020378 0 0 0 1.000000 0"/></filter><g fill="none" fill-rule="evenodd"><g transform="translate(0 -5)"><g stroke="#000"><path d="m92.5 6.63188713-81.6872539 63.12291657 31.2138935 102.1747593h100.9467204l31.213894-102.1747593z"/><path d="m92.5 6.63188713-81.6872539 63.12291657 31.2138935 102.1747593h100.9467204l31.213894-102.1747593z" transform="matrix(0 -1 1 0 -5.5 190.5)"/><path d="m92.5 5.63188713-81.6872539 63.12291657 31.2138935 102.1747593h100.9467204l31.213894-102.1747593z" transform="matrix(0 1 -1 0 189.5 4.5)"/><path d="m91.5.63188713-81.68725392 63.12291657 31.21389352 102.1747593h100.9467204l31.213894-102.1747593z" transform="matrix(-1 0 0 -1 183 184)"/></g><g fill="#000" transform="translate(42 48)"><text font-family="KannadaMN-Bold, Kannada MN" font-size="10" font-weight="bold"><tspan x="20" y="96">Nabil Alzayat</tspan></text><text font-family="KannadaMN, Kannada MN" font-size="4"><tspan x="25" y="105">Wall Upholstery since 1981</tspan></text><text font-family="DiwanKufi, Diwan Kufi" font-size="20"><tspan x="0" y="28">تنجيد جدران</tspan></text></g></g><g filter="url(#a)"><g fill-rule="nonzero" transform="translate(77 85)"><path d="m20.9167383 4.34841797c-.262793-1.01701172-.2830664-2.09695313-.035918-3.14689453-.0994336-.04253906-.1995117-.08373047-.3-.12416016-.567539.91658203-1.3437305 1.66552735-2.2473633 2.1984961.9086719.25875 1.7739844.62126953 2.5832813 1.07255859z" fill="#240303"/><path d="m18.9781055 11.0218945 2.1953906-.5838281.5838867-2.19544921-2.1954492.58388672z" fill="#af9b70"/><path d="m15.9958008 11.1611133c.3604687.0935742.7007812.2373633 1.0140234.4222851l.984375-3.70124996c.0810352-.30457032.3188672-.54251953.6234961-.6234961l2.5355274-.67435547c-1.318711-.96679687-2.8716797-1.63201171-4.556836-1.89199218l1.3194727 2.27560547c.1580859.27263671.1580859.60908203 0 .88171875z" fill="#a88f00"/><path d="m9.07746094 4.35169922c.81105469-.4528711 1.67841796-.8165625 2.58943356-1.07595703-.9042187-.53296875-1.681582-1.2815625-2.24912106-2.19779297-.10160156.04089844-.20273438.08255859-.30322266.125625.24697266 1.05046875.22628906 2.13082031-.03708984 3.148125z" fill="#240303"/><path d="m8.82650391 10.4380664 2.19539059.5838281-.5838281-2.19539059-2.19544921-.58388672z" fill="#af9b70"/><path d="m13.8604688 7.40888672 1.1395312 1.96529297 1.1395313-1.96529297-1.1395313-1.96529297z" fill="#af9b70"/><circle cx="15" cy="15" fill="#240303" r="2.207813"/><path d="m9.04740234 25.6314844c.26460938 1.0181836.28494141 2.099707.03785157 3.1521094.11015625.0474609.22107422.0935742.33257812.138457.56748047-.9162305 1.34484377-1.6648242 2.24906247-2.197793-.9222656-.2625586-1.79982419-.6320508-2.61949216-1.0927734z" fill="#240303"/><path d="m28.7943164 20.8903125c.0452344-.1055273.0891211-.2116992.1319531-.3183984-.9170508-.5685352-1.6661718-1.3460157-2.1986718-2.2510547-.260625.9192773-.6273633 1.7942578-1.0849219 2.6118164 1.0180664-.2657813 2.099707-.2880469 3.1516406-.0423633z" fill="#240303"/><path d="m23.8712695 6.10605469c1.08 1.0799414 2.6041993 1.57382812 4.0932967 1.35708984-1.3139607-2.25158203-3.1972224-4.13179687-5.4513826-5.44177734-.2132813 1.48611328.2816016 3.00814453 1.3580859 4.0846875z" fill="#000"/><path d="m7.25871094 11.3823633-.67435547-2.53552736c-.96679688 1.31871096-1.63201172 2.87162106-1.89199219 4.55677736l2.27554688-1.3194727c.27269531-.1580859.60908203-.1580859.88177734 0l3.3114258 1.9200586c.0935742-.3604687.2373633-.7007812.4222851-1.0139648l-3.70124996-.984375c-.30457032-.0810352-.54240235-.3189258-.6234375-.6234961z" fill="#a88f00"/><path d="m29.4980273 11.1491016c-1.1973632.9003515-1.9207617 2.3239453-1.9207617 3.8433398 0 1.5227344.7241602 2.9460938 1.9241016 3.8461523.3247265-1.2257226.4986328-2.5121484.4986328-3.8385937 0-1.3308984-.1751367-2.6214844-.5019727-3.8508984z" fill="#af9b70"/><path d="m25.6411523 9.0646875c.4567383.815625.8231836 1.6884375 1.0839844 2.6053711.5318555-.9059766 1.2800391-1.68498047 2.1961524-2.25416016-.0434766-.10798828-.0880664-.21544922-.1340039-.32214844-.5008008.11888672-1.0083985.17753906-1.5125977.17753906-.5528906-.00005859-1.1017383-.0703125-1.6335352-.20660156z" fill="#240303"/><path d="m20.9467969 25.634707c-.8179102.4591992-1.6933594.827461-2.6133399 1.0894336.9036328.5329102 1.6798828 1.2818555 2.2473633 2.1984961.1104492-.044414.2202539-.0900586.3293555-.1370508-.2473242-1.051875-.2273438-2.1329882.0366211-3.1508789z" fill="#240303"/><path d="m14.0041992 18.8388867c-.3604687-.0935742-.7007812-.2373633-1.0140234-.4222851l-.984375 3.70125c-.0810352.3045703-.3188672.5425195-.6234961.6234961l-2.53552736.6742968c1.31871096.9667969 2.87162106 1.6320117 4.55677736 1.8919336l-1.3194727-2.2756054c-.1580859-.2726368-.1580859-.6090821 0-.8817188z" fill="#a88f00"/><path d="m16.5963867 25.3075781c1.6851563-.2599219 3.2380664-.9251367 4.5567774-1.8919336l-2.5355274-.6742968c-.3045703-.0809766-.5424609-.3189258-.6234961-.6234961l-.984375-3.70125c-.3132422.1849804-.6534961.3287109-1.0140234.4222851l1.9200586 3.3114258c.1580859.2726367.1580859.609082 0 .8817187z" fill="#a88f00"/><path d="m13.4036133 4.69242187c-1.6851563.25992188-3.2380664.92513672-4.55683596 1.89199219l2.53552736.67435547c.3045703.08097656.5424609.31892578.6234961.62349609l.984375 3.70124998c.3132422-.1849804.6534961-.3287109 1.0140234-.4222851l-1.9200586-3.31142581c-.1580859-.27263672-.1580859-.60908203 0-.88171875z" fill="#a88f00"/><path d="m4.35814453 20.9340234c-.45533203-.8133398-.82083984-1.683457-1.08134765-2.5975781-.53408204.9019336-1.2834375 1.6764844-2.20019532 2.2423242.04183594.1040625.08460938.2075977.12867188.3104883 1.05240234-.2449805 2.13457031-.2220117 3.15287109.0447656z" fill="#240303"/><path d="m.50091797 18.8470898c1.20673828-.8995898 1.93564453-2.3269921 1.93564453-3.8546484 0-1.5242578-.72808594-2.9520117-1.93230469-3.8518945-.32830078 1.2319922-.50425781 2.5255078-.50425781 3.8594531 0 1.3294922.17472656 2.6187891.50091797 3.8470898z" fill="#af9b70"/><path d="m6.12369141 6.10605469c1.07589843-1.07589844 1.57078125-2.59669922 1.35855468-4.0819336-2.25234375 1.30998047-4.13414062 3.1894336-5.44722656 5.43978516 1.48746094.21509766 3.00978516-.27902344 4.08867188-1.35785156z" fill="#000"/><path d="m2.72039062 9.27123047c-.50285156 0-1.0086914-.05835938-1.50808593-.17654297-.04476563.10412109-.08824219.20888672-.13066407.31412109.9159375.56654297 1.66441407 1.34273441 2.19785157 2.24572261.260625-.9118359.62572265-1.77996089 1.08029297-2.59142573-.53373047.13734375-1.08457032.208125-1.63939454.208125z" fill="#240303"/><g fill="#af9b70"><path d="m5.44359375 15 1.96523437 1.1395312 1.96529297-1.1395312-1.96529297-1.1395313z"/><path d="m23.9008594 23.8832227c-1.0764258 1.0764257-1.5708985 2.5942382-1.3594336 4.0786523 2.2461914-1.3119141 4.1224219-3.1904883 5.4312304-5.4387305-1.4821875-.2085937-2.9984179.2866407-4.0717968 1.3600782z"/><path d="m14.9993555 27.5703516c-1.5225 0-2.9486719.7263281-3.8487305 1.9280859 1.2290039.3266016 2.5190625.5015625 3.849375.5015625 1.3300781 0 2.6199023-.1749023 3.8486719-.5013867-.8999414-1.2023438-2.3247657-1.9282617-3.8493164-1.9282617z"/><path d="m6.09416016 23.8832227c-1.07238282-1.0723243-2.58673828-1.5677344-4.06728516-1.3607813 1.30798828 2.2470117 3.18269531 4.1247656 5.42712891 5.4367383.21041015-1.4835938-.28417969-3.0002344-1.35984375-4.075957z"/></g><path d="m14.9993555 2.42964844c1.5245507 0 2.949375-.72585938 3.8492578-1.92826172-1.228711-.32648438-2.5185352-.50138672-3.8486133-.50138672-1.3303125 0-2.6204297.17496094-3.849375.5015625.9000586 1.20169922 2.3262305 1.92808594 3.8487305 1.92808594z" fill="#000"/><path d="m10.4380664 21.1735547.5838281-2.1954492-2.19539059.5838867-.58388672 2.1954492z" fill="#af9b70"/><path d="m16.1395313 22.5911719-1.1395313-1.965293-1.1395312 1.965293 1.1395312 1.9652929z" fill="#af9b70"/><path d="m6.58435547 21.1531641.67435547-2.5354688c.08103515-.3045703.31886719-.5424609.62349609-.6234961l3.70130857-.984375c-.1849804-.3132422-.3287695-.6534961-.4223437-1.0140234l-3.31142581 1.9200586c-.13628906.0790429-.28863281.1185937-.44085937.1185937s-.30451172-.0394922-.44085938-.1185937l-2.27554687-1.3194727c.25986328 1.6851563.92507812 3.2380664 1.891875 4.5567774z" fill="#a88f00"/><path d="m22.7412891 18.6176953.6743554 2.5354688c.9667969-1.318711 1.6320703-2.8716211 1.8919922-4.5567774l-2.2755469 1.3194727c-.1363476.0790429-.2886328.1185937-.4408593.1185937-.1522266 0-.3045117-.0395508-.4408594-.1185937l-3.3114258-1.9200586c-.0935742.3604687-.2373633.7007812-.4223437 1.0140234l3.70125.984375c.3045703.0809766.5424023.3188672.6234375.6234961z" fill="#a88f00"/><path d="m24.5564062 15-1.9652343-1.1395312-1.965293 1.1395312 1.965293 1.1395312z" fill="#af9b70"/><path d="m21.1734961 19.5619922-2.1953906-.5838867.5838281 2.1954492 2.1954492.5838867z" fill="#af9b70"/><path d="m23.4156445 8.84683594-.6743554 2.53552736c-.0810352.3045703-.3188672.5424609-.6234961.6234961l-3.70125.984375c.1849804.3132422.3287695.6534961.4223437 1.0139648l3.3114258-1.9200586c.2725781-.1580859.609082-.1581445.8817773 0l2.2755469 1.3194727c-.2599804-1.6851563-.9251953-3.2380664-1.8919922-4.55677736z" fill="#a88f00"/></g></g></g></svg>